<svg xmlns="http://www.w3.org/2000/svg" viewBox="0 0 64 64" width="64" height="64" role="img" aria-label="DocuScan OCR logo">
  <defs>
    <linearGradient id="g" x1="0" y1="0" x2="1" y2="1">
      <stop offset="0" stop-color="#00e676"/>
      <stop offset="1" stop-color="#18c2a8"/>
    </linearGradient>
  </defs>
  <rect x="6" y="6" width="52" height="52" rx="14" fill="url(#g)"/>
  <g fill="none" stroke="#05210f" stroke-width="3.4" stroke-linecap="round" stroke-linejoin="round">
    <!-- document -->
    <path d="M23 18h11l8 8v16a2 2 0 0 1-2 2H23a2 2 0 0 1-2-2V20a2 2 0 0 1 2-2z"/>
    <path d="M34 18v8h8"/>
    <!-- scan line -->
    <path d="M20 30h14"/>
    <path d="M20 36h14"/>
    <path d="M20 42h9"/>
    <!-- viewfinder corners -->
    <path d="M18 14v-2M14 18h-2M46 14v-2M50 18h2M18 50v2M14 46h-2M46 50v2M50 46h2"/>
  </g>
</svg>
